<svg width="25" height="25" viewBox="0 0 25 25" fill="none" xmlns="http://www.w3.org/2000/svg">
<path d="M12.1408 0.871094C13.6196 0.8935 14.7848 1.03354 15.9163 1.42006C16.258 1.53769 16.4149 1.76176 16.3756 2.06985C16.342 2.36674 16.146 2.53479 15.8715 2.574C15.7203 2.5964 15.5578 2.52918 15.401 2.50118C14.5439 2.36113 13.6925 2.12587 12.8298 2.10346C8.65096 1.99703 5.36839 3.71113 3.15573 7.24578C0.685403 11.2005 1.11673 16.2308 4.03519 19.7431C5.7437 21.7989 7.91714 23.1097 10.5555 23.5186C14.4655 24.118 17.8041 22.9528 20.4593 20.0064C22.5095 17.7321 23.3385 15.0153 23.1312 11.9792C23.0808 11.2902 22.8848 10.6068 22.7559 9.92337C22.7391 9.82814 22.6999 9.73852 22.6887 9.64329C22.6271 9.24557 22.8063 8.95989 23.1536 8.88706C23.4617 8.81984 23.753 8.9991 23.8427 9.36881C24.0107 10.0802 24.2012 10.7916 24.2796 11.5086C24.6157 14.4663 23.9491 17.1943 22.263 19.6478C20.3976 22.3591 17.8209 24.0564 14.5887 24.6613C8.24204 25.8433 2.15304 21.9221 0.707809 15.6259C-0.334099 11.0717 0.94868 7.12814 4.37129 3.95201C6.62316 1.85699 9.36237 0.904704 12.1408 0.871094Z" fill="#626262"/>
<path d="M12.4203 19.9999C15.5685 19.9887 18.3413 17.9441 19.2656 14.936C19.5176 14.1182 19.6185 13.2779 19.5513 12.4209C19.5176 11.9728 19.7417 11.6759 20.1338 11.6367C20.4363 11.6087 20.7164 11.8719 20.75 12.2865C20.8452 13.3396 20.7108 14.3703 20.3691 15.3674C19.4728 17.9889 17.7419 19.8095 15.1203 20.745C11.4961 22.0389 7.28363 20.5209 5.28944 17.2327C4.32595 15.6418 3.88902 13.9277 4.06268 12.0904C4.29234 9.68728 5.35666 7.7043 7.27803 6.21986C8.80168 5.04351 10.5382 4.48334 12.4596 4.46094C12.6388 4.46094 12.8293 4.47214 13.0029 4.51135C13.3558 4.58978 13.5743 4.90347 13.5295 5.21156C13.4847 5.50285 13.1878 5.71571 12.8237 5.6877C11.8322 5.60928 10.8799 5.77173 9.94442 6.09662C7.37886 6.97608 5.42388 9.55284 5.25583 12.2584C5.11019 14.6448 5.90002 16.6557 7.69255 18.2354C9.04255 19.4118 10.6278 20.0055 12.4203 19.9999Z" fill="#626262"/>
<path d="M20.784 4.45553C21.3833 4.45553 21.9435 4.45553 22.4981 4.45553C22.7558 4.45553 22.991 4.51155 23.1031 4.78603C23.2095 5.0381 23.2095 5.26777 23.0078 5.46943C21.8147 6.66258 20.6271 7.86134 19.4172 9.03768C19.2771 9.17773 19.0138 9.23934 18.801 9.24495C18.2464 9.27295 17.6807 9.23934 17.1261 9.26175C16.958 9.26735 16.7508 9.35138 16.6275 9.46901C15.4064 10.6622 14.202 11.8777 12.9921 13.0821C12.908 13.1661 12.824 13.2501 12.7232 13.3117C12.4599 13.4798 12.1406 13.4406 11.9614 13.2333C11.7653 13.0037 11.7541 12.718 11.9502 12.4659C12.0566 12.3315 12.1854 12.2138 12.3031 12.0906C13.457 10.9366 14.6053 9.7771 15.7705 8.62876C15.9385 8.46071 16.0058 8.29266 16.0002 8.063C15.9889 7.51403 15.9665 6.96507 16.0058 6.42171C16.0226 6.18644 16.1178 5.90636 16.2802 5.73831C17.395 4.58997 18.5377 3.46964 19.6692 2.3325C19.8877 2.11404 20.123 2.002 20.4199 2.12524C20.7111 2.24848 20.784 2.49495 20.7784 2.78624C20.7784 3.32399 20.784 3.86175 20.784 4.45553ZM21.1033 5.65428C20.784 5.65428 20.5599 5.65988 20.3358 5.65428C19.8093 5.64868 19.5964 5.44142 19.5852 4.90926C19.5796 4.6796 19.5852 4.44993 19.5852 4.17545C19.49 4.23706 19.4508 4.24827 19.4228 4.27628C18.7226 4.97088 18.0224 5.67109 17.3221 6.3713C17.2773 6.41611 17.2157 6.47213 17.2157 6.52814C17.2101 7.02669 17.2101 7.52524 17.2101 8.04059C17.6694 8.04059 18.0896 8.05739 18.5097 8.03499C18.6553 8.02939 18.8234 7.96217 18.9242 7.86134C19.5796 7.22835 20.2238 6.57856 20.868 5.92877C20.9296 5.86715 20.9856 5.79432 21.1033 5.65428Z" fill="#335EEA"/>
<path d="M12.4046 16.422C14.3259 16.422 15.9112 14.9151 15.9896 12.9994C16.0008 12.7305 16.0289 12.4504 16.3033 12.344C16.4714 12.2768 16.7067 12.2712 16.8747 12.3272C17.1324 12.4168 17.2108 12.6745 17.1996 12.9378C17.1436 14.2261 16.6842 15.3465 15.7544 16.2483C14.3652 17.6039 12.2981 18.0073 10.5336 17.2174C8.65707 16.3772 7.68238 14.8815 7.63197 12.8369C7.57595 10.3162 9.64857 8.15954 12.1693 8.04751C12.3374 8.04191 12.5502 8.0307 12.6623 8.12593C12.8191 8.25477 12.9647 8.46763 12.9928 8.66369C13.0264 8.90456 12.8695 9.11743 12.6118 9.19585C12.4886 9.22946 12.3598 9.25187 12.2309 9.25747C10.2816 9.3527 8.78591 10.9772 8.83072 12.9602C8.86994 14.8647 10.472 16.4164 12.4046 16.422Z" fill="#626262"/>
</svg>
