<svg width="23" height="25" viewBox="0 0 23 25" fill="none" xmlns="http://www.w3.org/2000/svg">
<path d="M11.9634 18.1802C10.4439 18.1698 9.39276 17.9565 8.36242 17.6286C5.85942 16.8272 3.53335 15.6824 1.45186 14.0641C1.16045 13.8351 0.89506 13.5697 0.634873 13.3043C0.307038 12.9661 0.301833 12.6382 0.640076 12.3C0.999134 11.9461 1.3686 11.5923 1.7797 11.2957C4.13699 9.59406 6.71283 8.36598 9.54367 7.67908C11.2453 7.26799 12.9105 7.44491 14.5601 7.95488C17.1515 8.75625 19.5557 9.9323 21.6892 11.6183C21.965 11.8369 22.2096 12.0918 22.4489 12.3468C22.7455 12.6591 22.7664 12.9869 22.4385 13.2679C21.736 13.8715 21.0335 14.496 20.2634 15.0059C18.3588 16.2548 16.3085 17.2123 14.0969 17.7795C13.2643 18.0033 12.4005 18.1022 11.9634 18.1802ZM7.26964 12.8256C7.27484 15.1152 9.17941 16.9678 11.5263 16.9678C13.8888 16.9678 15.8298 15.084 15.8038 12.8048C15.7829 10.5099 13.8784 8.66259 11.5315 8.65738C9.17421 8.65218 7.26443 10.5203 7.26964 12.8256ZM6.97823 15.7917C6.35378 14.8811 6.05196 13.8923 6.05196 12.8256C6.04676 11.7536 6.35378 10.7545 6.9366 9.83863C5.09968 10.5984 3.36684 11.509 1.85255 12.8048C2.86728 13.7779 5.92707 15.5575 6.97823 15.7917ZM21.1948 12.8412C20.4247 11.9826 16.9798 9.96352 16.116 9.85424C17.3233 11.8265 17.318 13.8039 16.0744 15.8437C17.9477 15.0268 19.6753 14.1369 21.1948 12.8412Z" fill="#626262"/>
<path d="M12.2284 22.7758C12.2284 23.2286 12.2336 23.6865 12.2284 24.1392C12.2232 24.5763 11.9838 24.8365 11.6092 24.8313C11.2449 24.8261 11.0159 24.5659 11.0107 24.1444C11.0055 23.2234 11.0055 22.3023 11.0107 21.3864C11.0107 20.9701 11.2501 20.71 11.6144 20.71C11.9786 20.71 12.2232 20.9649 12.2284 21.3812C12.2336 21.8496 12.2284 22.3127 12.2284 22.7758Z" fill="#626262"/>
<path d="M12.0523 2.88683C12.0523 3.34996 12.0575 3.81829 12.0523 4.28143C12.0471 4.69773 11.8129 4.95791 11.4487 4.95791C11.0844 4.95791 10.8398 4.70293 10.8398 4.28663C10.8346 3.36557 10.8346 2.44451 10.8398 1.52345C10.845 1.08633 11.0896 0.820942 11.4591 0.83135C11.8286 0.836554 12.0523 1.10715 12.0523 1.54947C12.0523 1.99699 12.0523 2.4393 12.0523 2.88683Z" fill="#626262"/>
<path d="M20.8725 21.8905C20.7216 22.0674 20.6071 22.2756 20.4354 22.3797C20.2116 22.515 19.9566 22.4525 19.7537 22.2548C19.2229 21.7344 18.6869 21.2192 18.1561 20.7041C17.9948 20.5479 17.8231 20.3918 17.6722 20.2253C17.4016 19.9391 17.3964 19.5905 17.6462 19.3407C17.8855 19.1013 18.229 19.0961 18.5048 19.3563C19.2073 20.0224 19.9046 20.6989 20.5915 21.3857C20.7008 21.5002 20.7528 21.6772 20.8725 21.8905Z" fill="#626262"/>
<path d="M2.19629 21.8801C2.31597 21.6719 2.36801 21.495 2.48249 21.3805C3.16939 20.6936 3.86669 20.0224 4.56919 19.3511C4.83458 19.1013 5.19364 19.1065 5.42781 19.3459C5.66718 19.5904 5.67239 19.9443 5.4122 20.2045C4.7149 20.8966 4.01239 21.5731 3.30989 22.2548C3.11215 22.4473 2.85716 22.5149 2.6282 22.3692C2.45648 22.2652 2.3472 22.057 2.19629 21.8801Z" fill="#626262"/>
<path d="M2.83117 3.15234C3.03932 3.27203 3.21104 3.32927 3.33073 3.44375C4.00721 4.07861 4.66809 4.72908 5.33417 5.37954C5.6516 5.68656 5.68802 6.04562 5.44345 6.30581C5.19367 6.5712 4.83981 6.5712 4.51718 6.26418C3.83029 5.60851 3.1538 4.94243 2.47211 4.28155C2.26396 4.07861 2.18591 3.81842 2.33161 3.57905C2.44089 3.41253 2.65424 3.30325 2.83117 3.15234Z" fill="#626262"/>
<path d="M20.877 3.79238C20.7521 4.00052 20.6948 4.16184 20.5856 4.27632C19.9091 4.95281 19.2222 5.62409 18.5301 6.29017C18.2387 6.56597 17.8588 6.56597 17.6246 6.30578C17.3853 6.04559 17.4061 5.70735 17.6923 5.42635C18.3688 4.76027 19.0504 4.0994 19.7269 3.43852C19.9351 3.23558 20.1901 3.14711 20.4294 3.29282C20.6064 3.39689 20.7208 3.61545 20.877 3.79238Z" fill="#626262"/>
<path d="M13.6707 12.8259C13.6707 13.9916 12.708 14.9231 11.5111 14.9179C10.3455 14.9126 9.38802 13.9656 9.38281 12.8207C9.38281 11.6603 10.3507 10.708 11.532 10.708C12.7132 10.7028 13.6759 11.6551 13.6707 12.8259ZM11.532 11.9257C11.0168 11.9257 10.6057 12.3108 10.6057 12.8051C10.6005 13.3099 11.022 13.7054 11.5528 13.7002C12.0679 13.695 12.4686 13.2995 12.4634 12.7999C12.453 12.3056 12.0523 11.9257 11.532 11.9257Z" fill="#335EEA"/>
</svg>
